<?xml version="1.0" standalone="no"?>
<!DOCTYPE svg PUBLIC "-//W3C//DTD SVG 20010904//EN"
 "http://www.w3.org/TR/2001/REC-SVG-20010904/DTD/svg10.dtd">
<svg version="1.0" xmlns="http://www.w3.org/2000/svg"
 width="250.000000pt" height="200.000000pt" viewBox="0 0 250.000000 200.000000"
 preserveAspectRatio="xMidYMid meet">
<metadata>
Created by potrace 1.16, written by Peter Selinger 2001-2019
</metadata>
<g transform="translate(0.000000,200.000000) scale(0.100000,-0.100000)"
fill="#000000" stroke="none">
<path d="M527 977 c45 -12 85 -25 88 -29 4 -4 0 -14 -9 -23 -20 -20 -20 -39
-1 -55 33 -27 80 13 57 50 -10 17 -10 20 5 20 32 0 43 -15 62 -83 28 -97 68
-164 141 -237 213 -214 547 -214 760 -1 74 74 134 180 146 257 6 39 11 48 38
59 37 16 41 14 24 -14 -16 -26 -1 -54 30 -59 33 -5 51 41 28 67 -21 23 -20 24
78 47 43 10 74 20 69 21 -5 2 -151 -17 -324 -42 -173 -25 -335 -45 -361 -44
-29 2 -53 -3 -64 -12 -16 -13 -16 -12 -6 7 11 21 49 34 215 75 26 6 46 13 45
15 -2 1 -69 -6 -150 -17 -145 -19 -147 -19 -294 1 -81 11 -149 18 -151 16 -2
-2 18 -9 44 -15 166 -41 204 -54 215 -75 10 -20 10 -20 -7 -6 -12 10 -34 14
-64 12 -25 -2 -185 17 -356 42 -170 25 -317 46 -325 45 -8 0 22 -11 67 -22z
m340 -88 c24 -9 25 -11 9 -28 -30 -33 -8 -79 33 -66 28 8 34 34 15 62 -15 23
-15 25 3 19 10 -3 47 -12 82 -21 86 -22 167 -53 181 -69 9 -11 4 -16 -25 -26
-29 -10 -35 -16 -35 -41 0 -19 5 -29 15 -29 10 0 15 10 15 30 0 25 4 30 23 30
20 0 23 -4 19 -30 -3 -23 0 -30 12 -30 12 0 16 9 16 35 0 28 4 35 20 35 16 0
20 -7 20 -35 0 -26 4 -35 16 -35 12 0 15 7 12 30 -4 26 -1 30 19 30 19 0 23
-5 23 -30 0 -20 5 -30 15 -30 10 0 15 10 15 30 0 24 -5 31 -31 37 -44 12 -40
25 13 52 35 17 206 69 236 71 1 0 -4 -11 -13 -24 -18 -27 -11 -53 16 -61 41
-13 63 33 33 66 -16 17 -15 19 9 28 14 5 42 13 62 17 38 7 38 7 31 -22 -15
-64 -79 -177 -130 -227 -119 -120 -304 -173 -459 -132 -144 37 -259 130 -322
259 -19 39 -37 84 -41 100 -7 29 -7 29 31 22 20 -4 48 -12 62 -17z"/>
</g>
</svg>
