<?xml version="1.0" standalone="no"?>
<!DOCTYPE svg PUBLIC "-//W3C//DTD SVG 20010904//EN"
 "http://www.w3.org/TR/2001/REC-SVG-20010904/DTD/svg10.dtd">
<svg version="1.0" xmlns="http://www.w3.org/2000/svg"
 width="225.000000pt" height="225.000000pt" viewBox="0 0 225.000000 225.000000"
 preserveAspectRatio="xMidYMid meet">
<metadata>
Created by potrace 1.16, written by Peter Selinger 2001-2019
</metadata>
<g transform="translate(0.000000,225.000000) scale(0.100000,-0.100000)"
fill="#000000" stroke="none">
<path d="M977 2229 c-449 -65 -805 -377 -924 -809 -110 -400 5 -815 304 -1101
394 -376 1002 -411 1440 -83 168 126 320 344 383 548 52 166 65 369 35 541
-17 96 -71 250 -118 335 -107 194 -283 363 -485 464 -183 92 -438 134 -635
105z m450 -86 c20 -30 19 -88 -2 -120 -26 -39 -52 -46 -120 -30 -50 12 -59 17
-57 33 4 22 32 143 37 161 7 20 124 -16 142 -44z m-433 14 c7 -20 7 -34 -2
-47 -10 -16 -7 -24 18 -52 37 -40 37 -44 3 -51 -22 -4 -35 2 -64 29 -40 39
-51 37 -38 -9 10 -34 -2 -49 -35 -45 -16 2 -23 19 -37 83 -10 44 -18 85 -18
91 -1 14 79 33 129 31 28 -2 36 -7 44 -30z m-396 -183 c48 -51 44 -86 -15
-141 -26 -23 -51 -43 -55 -43 -10 0 -118 135 -118 147 0 10 74 66 100 76 26 9
54 -3 88 -39z m1182 11 c69 -36 81 -106 26 -161 -41 -41 -75 -44 -123 -11 -65
44 -65 108 -1 162 34 29 57 31 98 10z m-430 -55 c228 -65 422 -230 524 -443
67 -142 80 -199 80 -362 0 -123 -3 -150 -27 -228 -47 -154 -115 -265 -228
-373 -110 -104 -200 -156 -346 -200 -76 -23 -106 -27 -223 -28 -164 0 -233 15
-375 85 -216 105 -362 278 -436 519 -32 103 -34 340 -5 440 93 312 329 535
641 604 99 22 294 15 395 -14z m451 -1477 c28 -17 59 -67 59 -95 -1 -43 -65
-98 -114 -98 -40 0 -96 58 -96 100 0 42 15 67 53 90 39 24 61 25 98 3z m-1213
-40 c47 -38 54 -71 27 -123 -15 -28 -60 -60 -86 -60 -13 0 -119 68 -119 76 0
3 25 39 55 80 35 47 60 72 68 68 7 -4 31 -22 55 -41z m332 -153 c25 -6 54 -12
66 -15 41 -9 49 -83 10 -98 -14 -6 -14 -11 -1 -48 20 -56 20 -57 -17 -50 -25
5 -34 14 -45 45 -7 22 -16 42 -19 45 -8 8 -24 -21 -24 -46 0 -15 -6 -23 -17
-23 -36 0 -46 16 -39 59 12 78 28 141 34 141 4 0 27 -5 52 -10z m489 -6 c25
-18 51 -71 51 -103 0 -35 -42 -70 -100 -85 -30 -8 -56 -13 -58 -11 -4 4 -42
164 -42 179 0 7 21 17 48 23 68 15 75 15 101 -3z"/>
<path d="M957 1914 c-284 -61 -512 -269 -603 -549 -39 -119 -45 -297 -14 -420
65 -262 235 -464 473 -561 478 -195 997 82 1101 589 88 427 -196 851 -632 942
-91 19 -235 18 -325 -1z m363 -23 c157 -40 268 -108 387 -235 114 -122 185
-279 202 -449 24 -240 -49 -452 -218 -631 -189 -199 -478 -283 -751 -219 -75
17 -208 77 -272 121 -113 78 -229 225 -278 355 -75 193 -77 377 -7 569 94 259
347 465 619 507 87 13 228 6 318 -18z"/>
<path d="M957 1740 c-187 -55 -324 -170 -407 -344 -49 -103 -64 -179 -58 -303
9 -168 68 -302 185 -417 243 -240 625 -249 872 -20 82 76 143 167 179 266 23
65 26 88 26 203 0 115 -3 138 -26 203 -36 100 -81 172 -155 245 -75 74 -164
130 -253 159 -95 31 -271 35 -363 8z m371 -23 c250 -88 420 -327 422 -593 1
-227 -138 -453 -341 -553 -254 -125 -533 -80 -729 118 -121 123 -180 265 -180
438 0 174 57 311 185 439 87 88 176 140 291 169 93 23 260 15 352 -18z"/>
<path d="M932 1701 c-253 -88 -412 -308 -412 -569 0 -200 73 -354 226 -480
237 -194 585 -174 804 47 122 122 180 261 180 427 -1 254 -156 477 -397 571
-58 22 -87 27 -193 30 -117 3 -130 1 -208 -26z m348 -8 c160 -44 296 -157 373
-309 76 -149 77 -367 2 -513 -105 -208 -302 -331 -530 -331 -269 0 -493 171
-571 435 -28 95 -24 231 10 329 47 139 110 223 228 306 141 99 320 130 488 83z"/>
<path d="M1111 1623 c-1 -7 -8 -13 -16 -13 -11 0 -13 -8 -8 -30 3 -19 1 -30
-6 -30 -6 0 -11 7 -11 15 0 8 -4 15 -10 15 -5 0 -10 7 -10 16 0 9 5 12 12 8 7
-5 8 -3 3 5 -5 9 -10 10 -18 2 -8 -8 -9 -16 0 -29 6 -10 14 -38 18 -62 7 -40
9 -42 16 -20 7 24 7 24 8 -5 1 -20 -6 -34 -19 -43 -22 -13 -27 -56 -8 -68 17
-11 59 -13 52 -3 -3 5 -11 9 -17 9 -25 0 -39 17 -32 39 5 17 10 19 26 11 10
-6 19 -17 19 -26 0 -8 7 -17 15 -20 8 -4 13 -9 10 -13 -9 -15 45 -5 61 11 18
17 11 62 -9 55 -18 -6 -20 -27 -3 -27 9 0 16 -4 16 -10 0 -5 -7 -10 -15 -10
-8 0 -15 5 -15 10 0 6 -4 10 -10 10 -5 0 -10 -7 -10 -15 0 -9 -6 -12 -15 -9
-8 4 -15 13 -15 21 0 9 6 13 14 10 8 -3 20 1 27 9 16 20 3 30 -17 13 -14 -11
-18 -11 -21 -1 -3 6 -9 10 -14 6 -5 -3 -9 8 -9 23 0 27 3 28 40 28 36 0 41 3
46 25 3 14 10 35 16 47 6 13 8 26 5 30 -4 3 -7 0 -7 -8 0 -12 -2 -11 -10 1 -8
13 -11 13 -22 1 -10 -11 -10 -14 0 -18 17 -6 15 -43 -2 -43 -9 0 -13 7 -11 20
2 11 -1 20 -6 20 -6 0 -7 5 -4 10 3 6 2 10 -4 10 -5 0 -8 -16 -7 -35 2 -19 0
-35 -5 -35 -12 0 -21 38 -13 51 5 8 3 9 -7 4 -12 -8 -12 -6 -1 8 8 9 12 22 9
29 -4 10 -6 10 -6 1z"/>
<path d="M825 1348 c49 -46 108 -100 130 -121 40 -38 40 -38 8 -23 -18 9 -48
16 -68 16 -39 0 -83 19 -105 45 -10 13 -15 13 -21 3 -7 -10 -16 -9 -44 6 -20
11 -47 30 -61 42 -27 26 -35 7 -8 -20 21 -21 6 -21 -18 1 -21 19 -24 4 -6 -30
10 -20 10 -21 -5 -8 -10 8 -17 9 -17 3 0 -6 12 -20 28 -33 l27 -21 -25 6 c-21
5 -20 3 5 -9 27 -13 28 -14 7 -15 -38 0 -14 -20 26 -21 29 0 33 -2 17 -9 -18
-7 -18 -9 -3 -15 9 -4 22 -3 29 1 8 4 9 3 5 -4 -4 -7 -1 -12 9 -12 9 0 26 -6
38 -14 12 -7 34 -13 50 -12 15 1 27 -2 27 -7 0 -5 6 -7 12 -5 7 3 33 -2 58
-10 25 -8 58 -17 74 -21 l29 -6 -67 -54 c-64 -50 -69 -52 -86 -36 -26 23 -40
11 -40 -35 0 -34 -6 -44 -60 -93 -33 -29 -60 -59 -60 -66 0 -28 33 -20 95 24
60 43 69 47 92 36 48 -22 87 14 47 43 -14 11 -7 21 51 77 72 70 85 78 85 56 0
-8 7 -20 15 -27 21 -18 19 -53 -5 -68 -11 -7 -20 -23 -20 -37 0 -14 8 -29 20
-35 24 -13 26 -36 4 -44 -24 -9 -57 13 -51 34 3 12 -6 28 -23 45 l-27 26 -7
-25 c-9 -35 2 -76 19 -70 7 3 15 -2 18 -10 3 -8 29 -26 57 -39 l51 -25 44 24
c24 14 49 31 55 39 7 8 16 12 21 10 11 -7 22 58 14 84 -6 20 -7 20 -32 -9 -14
-17 -23 -36 -20 -44 10 -25 -14 -36 -39 -19 -33 21 -34 87 -3 104 18 9 20 16
14 56 l-7 46 71 -64 c39 -35 71 -67 71 -71 0 -5 -7 -11 -15 -14 -21 -9 -19
-31 6 -44 16 -9 26 -8 43 4 22 14 27 12 96 -36 70 -49 73 -50 87 -32 12 17 10
22 -29 54 -82 67 -90 78 -83 111 4 18 2 36 -5 44 -13 16 -40 9 -40 -11 0 -21
-8 -18 -69 29 -30 23 -60 45 -65 49 -13 9 -5 17 20 23 11 2 40 10 66 18 27 8
61 14 78 13 16 -1 30 1 30 6 0 4 8 8 19 8 25 0 73 25 64 34 -4 3 4 5 18 4 15
-2 23 2 22 10 -2 7 7 12 21 12 14 0 28 5 31 10 4 7 -3 8 -21 4 -19 -5 -25 -4
-20 5 4 6 14 11 22 11 8 0 13 4 9 9 -3 6 1 13 8 18 8 4 20 19 27 33 l13 25
-23 -20 -23 -20 17 33 c19 38 15 56 -6 23 -19 -31 -29 -26 -13 6 19 37 12 39
-19 8 -34 -34 -99 -62 -104 -45 -3 7 -15 1 -32 -15 -21 -20 -43 -29 -87 -34
-32 -4 -69 -13 -83 -20 -14 -6 29 40 95 104 l120 116 -120 -92 c-66 -51 -132
-103 -146 -116 -23 -21 -27 -22 -39 -8 -7 8 -16 12 -21 9 -18 -11 -29 7 -16
26 16 27 -2 55 -34 55 -27 0 -39 -36 -20 -59 8 -10 7 -16 -3 -25 -10 -9 -16
-9 -21 -1 -5 8 -11 8 -21 -1 -9 -8 -18 -8 -26 -2 -7 6 -76 58 -153 117 l-140
107 90 -83z m315 -138 c0 -5 11 -10 25 -10 15 0 25 -6 25 -14 0 -8 6 -16 14
-19 9 -4 12 -14 9 -26 -3 -12 -1 -21 6 -21 6 0 11 -7 11 -15 0 -8 -5 -15 -11
-15 -7 0 -9 -10 -5 -25 5 -20 3 -25 -13 -25 -10 0 -22 -7 -25 -16 -4 -10 -13
-13 -26 -9 -12 4 -27 2 -35 -5 -10 -8 -15 -8 -22 3 -4 8 -17 16 -27 18 -11 2
-20 13 -22 23 -1 10 -7 22 -12 25 -4 3 -8 23 -8 44 0 29 4 37 19 37 14 0 17 5
12 21 -6 19 -4 21 19 15 19 -5 28 -2 32 9 7 17 34 21 34 5z"/>
</g>
</svg>
